<svg width="1024" height="1024" viewBox="0 0 1024 1024" fill="none" xmlns="http://www.w3.org/2000/svg">
<path d="M822.04 56.8281L829.717 59.0641C836.316 74.7915 871.239 245.084 877.118 272.936L986.036 791.992C929.537 804.072 873.232 817.021 817.13 830.836C796.056 723.721 771.558 613.495 748.67 506.57C732.7 422.427 715.313 338.558 696.515 255.002C587.382 280.032 478.489 306.065 369.838 333.102C358.4 278.78 346.662 224.522 334.617 170.328C383.27 161.389 448.619 143.773 497.804 132.1C605.674 106.117 713.757 81.0228 822.04 56.8281Z" fill="black"/>
<path d="M201.965 202.344L205.404 203.109C219.154 218.692 317.677 714.234 330.979 778.55C425.124 751.274 559.127 726.324 659.181 701.851C670.123 754.633 681.433 807.336 693.11 859.954C640.402 870.673 581.265 885.853 528.378 898.201L197.081 974.423C180.355 914.515 162.898 817.607 149.581 754.817C114.628 583.452 78.408 412.349 40.9258 241.52C94.4633 227.89 148.145 214.826 201.965 202.344Z" fill="black"/>
</svg>
